<svg version="1.2" xmlns="http://www.w3.org/2000/svg" viewBox="0 0 703 114" width="703" height="114">
	<title>New Project</title>
	<style>
		.s0 { fill: #ffffff } 
	</style>
	<path id="Formation" fill-rule="evenodd" class="s0" d="m21.7 113h-21.4l-0.1-106.2h75.7v20h-54.2v27.4h45.7v19.8h-45.7zm99.3 1.1q-12 0-21-4.8-9-5-13.9-14-5-9.2-5-21.6 0-12.8 5-21.9 5-9.3 14-14.2 9-5 20.8-5 12 0 20.8 5.1 8.9 5.1 13.8 14.2 4.9 9.2 4.9 22 0 12.4-4.9 21.5-4.8 9.1-13.6 13.9-8.8 4.8-20.9 4.8zm-0.3-19.2q6.9 0 11.1-3 4.2-3 6-7.8 1.9-5 1.9-10.4 0-5.4-1.9-10.3-1.8-5-6-8.1-4.1-3.3-11.1-3.4-6.7 0.1-11 3.4-4.1 3.1-6.1 8.1-1.8 4.9-1.8 10.3 0 5.6 1.8 10.4 2 4.8 6.1 7.8 4.3 3 11 3zm74.2 18.1h-21v-79.1h19l1.3 9.5q3-4.5 6.7-6.8 3.8-2.3 7.8-3.1 4.1-0.9 8.3-0.9 2 0 3.6 0.1 1.6 0 2.4 0v20.3h-5q-7 0-12.3 2.4-5.2 2.4-8.1 7.5-2.7 5.1-2.7 13zm59 0h-21v-79h18.9l1.8 8.8q3-4.1 6.6-6.3 3.7-2.2 7.5-3 3.7-0.7 6.9-0.7 7 0 12.4 2.7 5.5 2.7 8.7 8.7 3.2-4.4 6.9-6.8 3.8-2.5 8-3.6 4.2-1 8.5-1 9.2 0 14.7 3.9 5.8 3.7 8.3 10.5 2.7 6.7 2.7 15.7v50.1h-21v-44.5q0-2.7-0.3-5.6-0.3-2.8-1.5-5.4-1-2.5-3.3-4.2-2.1-1.6-6-1.6-3.7 0-6.3 1.6-2.6 1.7-4.1 4.5-1.4 2.8-2.2 6-0.6 3.2-0.6 6.5v42.7h-21v-44.7q0-2.5-0.3-5.4-0.3-2.8-1.4-5.4-1-2.5-3.4-4.2-2.3-1.6-6.3-1.6-5.6 0-8.6 3.3-2.8 3.2-3.7 7.7-0.9 4.3-0.9 8zm131.8 1.1q-5.4 0-10.5-1.4-4.9-1.5-8.8-4.5-3.9-3-6.2-7.5-2.2-4.5-2.2-10.5 0-8.1 3.3-12.9 3.3-4.9 8.8-7.5 5.6-2.5 12.8-3.4 7.3-0.9 15.1-0.9h11.5q-0.1-4.4-1.7-7.7-1.5-3.4-4.7-5.2-3.1-2-8.1-2-3.1 0.1-6.1 0.9-2.9 0.8-4.8 2.3-2 1.5-2.6 3.9h-21.3q1-6.6 4.3-11.3 3.2-4.8 8.2-7.8 5-2.9 10.8-4.3 6-1.5 12.3-1.5 17.2 0 25.5 9.9 8.2 9.7 8.2 27.7v42.6h-18.9l-0.3-10.2q-3.7 5.3-8.5 7.7-4.7 2.4-9 3-4.4 0.6-7.1 0.6zm4.8-16.7q5.3 0 9.6-2.1 4.4-2.1 6.9-5.7 2.6-3.6 2.6-8.1v-1.9h-14.4q-3.2 0-6.2 0.3-2.8 0.3-5.2 1.2-2.3 0.7-3.6 2.5-1.4 1.8-1.4 4.8 0 3 1.5 5.1 1.7 2 4.4 3 2.7 0.9 5.8 0.9zm98.7 15.6h-7.5q-9.9 0-16.6-2.4-6.6-2.4-10.1-8.1-3.2-5.8-3.3-15.9v-33.9h-11.7v-18.7h11.7v-21.2h21v21.2h17.3v18.7h-17.3v30.9q0.1 5 1.8 7.8 1.8 2.9 8.1 2.9h6.6zm32.6 0h-21v-79.1h21zm-10.5-87q-5.9 0-9.5-3.4-3.6-3.6-3.6-9.2 0-5.8 3.8-9.4 3.7-3.6 9.4-3.6 5.3 0 9 3.6 3.9 3.4 3.9 9.3 0 5.7-3.7 9.3-3.6 3.4-9.3 3.4zm64 88.1q-12 0-21-4.8-9-5-13.9-14-5-9.1-5-21.6 0-12.7 5-21.9 5.1-9.3 14.1-14.2 9-5 20.7-5 12 0 20.8 5.1 8.9 5.1 13.8 14.3 5 9.1 5 21.9 0 12.4-5 21.6-4.8 9-13.6 13.8-8.7 4.8-20.9 4.8zm-0.3-19.2q6.9 0 11.1-3 4.2-3 6-7.8 2-5 2-10.4 0-5.4-2-10.3-1.8-5-6-8.1-4-3.3-11.1-3.3-6.7 0-10.9 3.3-4.2 3.1-6.2 8.1-1.8 4.9-1.8 10.3 0 5.6 1.8 10.4 2 4.8 6.2 7.8 4.2 3 10.9 3zm74.3 18.1h-21v-79h19.6l1.1 9.1q3.3-4 7.5-6.3 4.3-2.4 8.7-3.3 4.5-0.9 8.1-0.9 11.4 0 17.7 5 6.4 4.9 9.1 13.3 2.9 8.3 2.9 18.5v43.6h-21v-40.9q0-3.6-0.6-7.2-0.6-3.6-2.3-6.6-1.5-3-4.3-4.8-2.9-1.8-7.5-1.8-6 0-10.1 3-4 3-6 8.1-1.9 5.1-1.9 11.2z"/>
</svg>