<?xml version="1.0" encoding="UTF-8" standalone="no"?>
<!-- Created with Inkscape (http://www.inkscape.org/) -->

<svg
   width="120.97997mm"
   height="18.448866mm"
   viewBox="0 0 120.97997 18.448866"
   version="1.1"
   id="svg5"
   inkscape:export-filename="logo-white.svg"
   inkscape:export-xdpi="96"
   inkscape:export-ydpi="96"
   sodipodi:docname="logo-white.svg"
   inkscape:version="1.2.1 (ef4d3fba62, 2022-07-19, custom)"
   xmlns:inkscape="http://www.inkscape.org/namespaces/inkscape"
   xmlns:sodipodi="http://sodipodi.sourceforge.net/DTD/sodipodi-0.dtd"
   xmlns="http://www.w3.org/2000/svg"
   xmlns:svg="http://www.w3.org/2000/svg">
  <sodipodi:namedview
     id="namedview7"
     pagecolor="#ffffff"
     bordercolor="#000000"
     borderopacity="0.25"
     inkscape:showpageshadow="2"
     inkscape:pageopacity="0.0"
     inkscape:pagecheckerboard="0"
     inkscape:deskcolor="#d1d1d1"
     inkscape:document-units="mm"
     showgrid="false"
     inkscape:zoom="0.914906"
     inkscape:cx="395.66906"
     inkscape:cy="560.71334"
     inkscape:window-width="1920"
     inkscape:window-height="2043"
     inkscape:window-x="1920"
     inkscape:window-y="27"
     inkscape:window-maximized="0"
     inkscape:current-layer="layer1" />
  <defs
     id="defs2" />
  <g
     inkscape:label="Layer 1"
     inkscape:groupmode="layer"
     id="layer1"
     transform="translate(-0.42957634,-0.42249986)">
    <g
       aria-label="Formation"
       id="text113"
       style="font-weight:bold;font-size:25.4px;font-family:Mallanna;-inkscape-font-specification:'Mallanna Bold';fill:#f9f9f9;stroke-width:0.264583">
      <path
         d="m 1.1407763,0.44789986 h 8.8899997 2.0574 q 0.2794,0 0.5334,0.0254 0.254,0.0254 0.381,0.17779999 0.1016,0.127 0.127,0.35559995 0.0508,0.2032 0.0508,0.4826 0,0.254 -0.0254,0.5334 0,0.254 0,0.4826 0,0.1778 0,0.3556 0.0254,0.1778 0,0.3302 -0.0508,0.127 -0.1016,0.254 -0.0254,0.1016 -0.127,0.1778 -0.2032,0.1524 -0.7112,0.1524 -0.4826,-0.0254 -0.8382,-0.0254 H 6.4747762 q -0.4063999,0 -0.9905999,0 -0.5588,-0.0254 -0.8128,0.127 -0.1524,0.1016 -0.254,0.381 -0.0508,0.1778 -0.0508,0.4572 0.0254,0.2794 0.0254,0.4826 v 1.2192 q 0,0.127 -0.0254,0.3048 0,0.1778 0.0254,0.3048 v 0.2794 q 0.0508,0.2286 0.1016,0.3809999 0.0762,0.1524 0.2794,0.2286 0.127,0.0508 0.3048,0.0762 0.1778,0 0.381,0 h 0.9651999 3.5306 q 0.2031998,0 0.4571998,0 0.2794,-0.0254 0.5334,0 0.2794,0 0.4826,0.0254 0.2286,0.0254 0.3302,0.1016 0.254,0.1778 0.2286,0.6858 0,0.4826 0,0.889 0,0.2032 0,0.4572003 0.0254,0.2286 -0.0254,0.4318 -0.1016,0.2794 -0.2794,0.381 -0.1778,0.1016 -0.6858,0.1016 -0.508,-0.0254 -0.8382,-0.0254 H 5.9921763 q -0.4826,0 -0.9398,0.0254 -0.4572,0.0254 -0.5842,0.3556 -0.0508,0.0762 -0.0508,0.1778 0,0.0762 -0.0254,0.1524 v 0.254 0.381 0.6858 3.5814 q 0,0.3556 0,0.889 0.0254,0.508 -0.1016,0.7366 -0.0762,0.127 -0.2032,0.1778 -0.127,0.0254 -0.254,0.0762 -0.1778,0.0508 -0.381,0.0254 -0.2032,-0.0254 -0.4064,-0.0254 h -1.4732 q -0.2794,0 -0.5334,0 -0.22859997,-0.0254 -0.38099996,-0.1524 -0.1778,-0.127 -0.2032,-0.381 0,-0.2794 0,-0.5588 v -2.1844 -9.2964002 -3.7084 q 0,-0.3556 -0.0254,-0.8382 0,-0.48259995 0.127,-0.68579995 0.1016,-0.17779999 0.38099999,-0.25399999 0.0508,-0.0254 0.10159997,0 0.0508,0 0.1016,-0.0254 z"
         style="font-family:'Alte Haas Grotesk';-inkscape-font-specification:'Alte Haas Grotesk Bold'"
         id="path268" />
      <path
         d="m 28.242538,11.4461 q 0.0508,0.1524 0.0508,0.4318 0,0.2794 -0.0508,0.4318 v 0.254 q -0.0508,0.2032 -0.0508,0.4064 0.0254,0.2032 -0.0254,0.4064 -0.0508,0.1778 -0.0762,0.3302 -0.0254,0.1524 -0.0508,0.3302 -0.1016,0.2794 -0.1778,0.5842 -0.0762,0.2794 -0.2032,0.5334 -0.5334,1.2192 -1.397,1.9812 -0.8636,0.762 -2.0828,1.27 -0.3048,0.127 -0.635,0.1778 -0.3048,0.0762 -0.635,0.1524 -0.127,0.0508 -0.2794,0.0508 -0.1524,0 -0.2794,0.0254 -0.0762,0 -0.1778,0 -0.0762,0.0254 -0.1524,0.0254 -0.127,0.0254 -0.4064,0.0254 -0.2794,0.0254 -0.4318,-0.0254 h -0.254 q -0.127,-0.0254 -0.2794,-0.0254 -0.127,0.0254 -0.254,-0.0254 -0.1016,-0.0254 -0.2032,-0.0254 -0.0762,0 -0.2032,-0.0254 -0.254,-0.0762 -0.508,-0.127 -0.254,-0.0508 -0.4826,-0.1524 -0.3048,-0.1016 -0.5842,-0.2032 -0.254,-0.1016 -0.5334,-0.254 -0.889,-0.5334 -1.524,-1.2446 -0.635,-0.7112 -1.0668,-1.7018 -0.127,-0.2286 -0.2032,-0.4826 -0.0508,-0.254 -0.127,-0.5334 -0.0508,-0.127 -0.0508,-0.2286 0,-0.1016 -0.0508,-0.2286 -0.0508,-0.2032 -0.0508,-0.4064 0,-0.2286 -0.0508,-0.4318 -0.0254,-0.127 -0.0254,-0.2286 0,-0.1016 0,-0.2286 -0.0508,-0.1524 -0.0508,-0.4318 0.0254,-0.2794 0.0762,-0.4318 v -0.1778 q 0.0254,-0.127 0,-0.254 0,-0.1524 0.0508,-0.2794 0.0254,-0.127 0.0254,-0.2286 0,-0.127 0.0508,-0.254 0.1016,-0.3302003 0.1778,-0.6350003 0.0762,-0.3302 0.2032,-0.635 0.4572,-1.0414 1.0922,-1.7271999 0.635,-0.7112 1.5494,-1.2954 0.254,-0.127 0.5334,-0.2286 0.2794,-0.1016 0.5588,-0.2286 0.3302,-0.127 0.6858,-0.1778 0.3556,-0.0508 0.7366,-0.1524 0.2032,-0.0254 0.381,-0.0254 0.1778,0 0.3556,-0.0254 1.4732,-0.0254 2.54,0.3048 1.0922,0.3302 1.9304,0.9144 0.2794,0.2032 0.5588,0.4572 0.3048,0.2286 0.508,0.508 0.2032,0.254 0.3556,0.5079999 0.1778,0.254 0.3556,0.5334 0.1778,0.2794 0.2794,0.6096 0.1016,0.3048 0.2286,0.6604 0.0762,0.2032 0.127,0.4318003 0.0508,0.2286 0.1016,0.4572 0.0254,0.1016 0.0254,0.2032 0,0.1016 0.0254,0.2032 0.0508,0.127 0.0254,0.2794 -0.0254,0.1524 0.0254,0.2794 z m -3.556,0.9144 q 0.0254,-0.127 0.0254,-0.3556 0,-0.254 -0.0254,-0.381 v -0.2032 q -0.0508,-0.127 -0.0508,-0.2794 0,-0.1524 -0.0254,-0.2794 0,-0.1016 -0.0254,-0.1524 -0.0508,-0.2032 -0.1016,-0.4064 -0.0254,-0.2286 -0.1016,-0.4318003 -0.2794,-0.6604 -0.6604,-1.1176 -0.381,-0.4826 -1.016,-0.762 -0.1524,-0.0508 -0.3048,-0.0762 -0.1524,-0.0508 -0.3302,-0.1016 -0.2032,-0.0508 -0.4318,-0.0254 -0.2286,0 -0.4572,0 -0.0762,0.0508 -0.1778,0.0508 -0.1016,-0.0254 -0.1778,0 -0.1778,0.0508 -0.3556,0.1016 -0.1524,0.0254 -0.2794,0.1016 -0.635,0.2794 -1.0414,0.8128 -0.381,0.508 -0.6096,1.1938003 -0.0762,0.254 -0.127,0.5334 -0.0254,0.2794 -0.0762,0.5588 -0.0254,0.127 -0.0254,0.254 0,0.127 0,0.254 -0.0508,0.1778 -0.0508,0.5334 0.0254,0.3556 0.0762,0.5334 v 0.2286 q 0.0508,0.2032 0.0762,0.4064 0.0254,0.1778 0.0762,0.381 0.254,0.762 0.5334,1.2446 0.3048,0.4572 0.9398,0.8382 0.1778,0.127 0.381,0.2032 0.2286,0.0762 0.4572,0.127 0.1016,0.0254 0.1778,0.0254 0.0762,-0.0254 0.1778,0 0.1016,0.0254 0.2032,0.0508 0.127,0 0.2286,-0.0254 h 0.2032 q 0.2032,-0.0508 0.4064,-0.0762 0.2032,-0.0254 0.381,-0.1016 0.6604,-0.254 1.0668,-0.6858 0.4064,-0.4318 0.6858,-1.0668 0.1016,-0.254 0.1524,-0.508 0.0508,-0.254 0.127,-0.5334 0.0254,-0.1016 0.0254,-0.1778 0,-0.1016 0.0254,-0.2032 0,-0.127 0,-0.2286 0,-0.127 0.0254,-0.254 z"
         style="font-family:'Alte Haas Grotesk';-inkscape-font-specification:'Alte Haas Grotesk Bold'"
         id="path270" />
      <path
         d="m 38.097691,5.0960998 q 0.2794,0 0.4826,0.0508 0.2286,0.0508 0.3556,0.2286 0.1524,0.2032 0.1524,0.7112 0,0.4826 0,0.8636 0,0.2794 0,0.6349999 0.0254,0.3556 -0.0762,0.5588 -0.1016,0.1778 -0.3048,0.2286 -0.1778,0.0508 -0.4318,0.0508 -0.2286,0 -0.508,-0.0254 -0.254,-0.0254 -0.4826,0.0254 -0.1778,0.0508 -0.3556,0.0762 -0.1778,0 -0.3302,0.0508 -0.4064,0.127 -0.8128,0.381 -0.4064,0.2286 -0.635,0.5334 -0.127,0.2032 -0.2794,0.4318 -0.127,0.2032003 -0.254,0.4318003 -0.0762,0.2032 -0.1524,0.4318 -0.0508,0.2032 -0.1016,0.4064 -0.0508,0.1778 -0.0508,0.381 0,0.1778 -0.0508,0.3556 -0.0254,0.1016 -0.0254,0.2032 0.0254,0.0762 0,0.1524 v 0.4064 q -0.0508,0.1778 -0.0254,0.4064 0.0254,0.2032 0.0254,0.4064 v 1.6256 2.159 q 0,0.3302 -0.0254,0.6096 -0.0254,0.2794 -0.1524,0.4572 -0.0508,0.0762 -0.1778,0.127 -0.1016,0.0254 -0.2286,0.0508 h -0.127 q -0.127,0.0254 -0.2794,0.0254 -0.1524,0 -0.2794,0 h -1.0922 q -0.1524,-0.0254 -0.3302,-0.0254 -0.1524,0 -0.3302,0 -0.127,-0.0508 -0.254,-0.0762 -0.127,-0.0508 -0.1778,-0.1778 -0.1016,-0.127 -0.127,-0.3556 0,-0.254 0,-0.508 V 15.6625 8.4996997 6.6200998 q 0,-0.254 0,-0.4826 0,-0.254 0.1016,-0.4064 0.127,-0.2032 0.381,-0.254 0.254,-0.0508 0.6096,-0.0508 h 1.2954 q 0.3048,0 0.5334,0.0508 0.2286,0.0254 0.3556,0.2286 0.0762,0.127 0.0762,0.3556 0.0254,0.2286 0.0508,0.4572 0.0254,0.2032 0.0762,0.381 0.0762,0.1778 0.254,0.1778 0.0508,-0.0508 0.1016,-0.0508 0.0508,0 0.1016,-0.0508 0.1524,-0.127 0.254,-0.2794 0.127,-0.1778 0.3048,-0.3048 0.1016,-0.0762 0.1778,-0.1524 0.0762,-0.1016 0.1778,-0.1778 0.2286,-0.1524 0.4572,-0.3048 0.254,-0.1524 0.508,-0.2794 0.254,-0.1016 0.508,-0.1778 0.2794,-0.0762 0.5588,-0.1524 0.0762,-0.0254 0.2794,0 0.2286,0 0.2794,-0.0508 z"
         style="font-family:'Alte Haas Grotesk';-inkscape-font-specification:'Alte Haas Grotesk Bold'"
         id="path272" />
      <path
         d="m 48.029089,5.0960998 q 0.9398,-0.0254 1.651,0.2032 0.7112,0.2286 1.2446,0.635 0.2032,0.1524 0.3556,0.3556 0.1778,0.2032 0.381,0.4064 0.0508,0.0508 0.1524,0.1524 0.127,0.0762 0.254,0.0254 0.2794,-0.0762 0.5334,-0.3556 0.254,-0.3048 0.4826,-0.4572 0.3556,-0.2794 0.762,-0.4572 0.4064,-0.2032 0.9144,-0.381 0.2032,-0.0508 0.4826,-0.0762 0.3048,-0.0508 0.6096,-0.0508 0.3302,-0.0254 0.6096,0 0.3048,0.0254 0.5334,0.0762 0.127,0.0254 0.2286,0.0254 0.1016,0 0.2286,0.0508 0.3556,0.1016 0.6858,0.2032 0.3302,0.1016 0.609599,0.2794 1.0668,0.6604 1.6002,1.9303999 0.1016,0.2286 0.1524,0.4826 0.0508,0.2286 0.1016,0.4572 0.0254,0.1778 0.0254,0.3302 0.0254,0.1524 0.0508,0.3048 v 0.254 q 0.0254,0.1524 0,0.3556 0,0.2032003 0,0.3810003 v 1.4732 4.953 q 0,0.2032 0,0.4826 0.0254,0.254 0,0.508 0,0.2286 -0.0508,0.4572 -0.0508,0.2032 -0.1524,0.2794 -0.1524,0.127 -0.4064,0.1524 -0.2286,0 -0.508,0 h -1.346199 q -0.3556,0 -0.635,-0.0508 -0.2794,-0.0508 -0.381,-0.2794 -0.0762,-0.1778 -0.0762,-0.381 0,-0.2286 0,-0.4318 v -1.4224 -3.429 -1.0668 q 0,-0.127 0,-0.2794 0.0254,-0.1524 -0.0254,-0.2794 v -0.2032 q 0,-0.1524 0,-0.3048 0,-0.1524 -0.0254,-0.3048 -0.0254,-0.1016003 -0.0254,-0.2032003 0,-0.127 -0.0254,-0.2286 -0.1016,-0.381 -0.2286,-0.6604 -0.1016,-0.3048 -0.3302,-0.5334 -0.3556,-0.3556 -0.8636,-0.508 -0.1016,-0.0254 -0.1778,0 -0.0762,0 -0.1778,-0.0508 -0.1016,-0.0254 -0.254,-0.0254 -0.127,-0.0254 -0.254,0 -0.1524,0.0508 -0.3048,0.0508 -0.1524,0 -0.3048,0.0508 -0.7366,0.254 -1.0668,0.762 -0.4318,0.5842 -0.5334,1.4732003 -0.0762,0.8636 -0.0762,1.905 v 3.3528 1.8796 q 0,0.254 0,0.508 0,0.254 -0.127,0.4064 -0.127,0.1778 -0.381,0.2286 -0.2286,0.0254 -0.5334,0.0254 h -1.3716 q -0.2286,0 -0.4572,0 -0.2032,-0.0254 -0.3556,-0.0762 -0.254,-0.127 -0.3048,-0.4064 -0.0254,-0.2794 -0.0254,-0.635 v -2.159 -3.9878 q 0,-0.7366 -0.0508,-1.3970003 -0.0508,-0.6604 -0.3302,-1.0922 -0.2032,-0.3556 -0.5334,-0.5334 -0.3048,-0.1778 -0.762,-0.3048 -0.1016,-0.0254 -0.2032,0 -0.1016,0 -0.2286,-0.0254 -0.2794,-0.0508 -0.5334,0.0508 -0.0508,0 -0.1016,0.0254 -0.0508,0 -0.1016,0 -0.4064,0.127 -0.7874,0.4318 -0.4064,0.3048 -0.635,0.7112 -0.2032,0.381 -0.3048,0.8890003 -0.0762,0.4826 -0.1016,1.0668 0,0.5842 0,1.27 v 3.429 1.5494 q 0,0.2286 0,0.4572 0,0.2286 -0.0762,0.4064 -0.1016,0.2286 -0.381,0.2794 -0.2794,0.0508 -0.635,0.0508 h -1.3208 q -0.254,0 -0.508,0 -0.2286,-0.0254 -0.381,-0.127 -0.2286,-0.127 -0.254,-0.4572 0,-0.3556 0,-0.7366 V 14.2401 8.0424997 6.5184998 q 0,-0.2794 0,-0.4826 0.0254,-0.2286 0.127,-0.381 0.127,-0.1524 0.4064,-0.2032 h 0.1524 q 0.127,-0.0254 0.254,-0.0254 0.1524,0 0.2794,0 h 1.0414 q 0.2032,0 0.381,0.0254 0.2032,0 0.3556,0.0508 0.2032,0.0762 0.254,0.254 0.0762,0.1778 0.127,0.4064 0.0254,0.0762 0,0.1524 0,0.0508 0.0508,0.1016 0.0254,0.0762 0.0508,0.127 0.0508,0.0254 0.1016,0.0762 0.3048,0.0254 0.508,-0.1778 0.2032,-0.2286 0.381,-0.3556 0.3556,-0.254 0.7112,-0.4572 0.381,-0.2032 0.8128,-0.3302 0.2286,-0.0762 0.4572,-0.1016 0.2286,-0.0254 0.4826,-0.0762 0.0762,-0.0254 0.2286,0 0.1524,0 0.2032,-0.0254 z"
         style="font-family:'Alte Haas Grotesk';-inkscape-font-specification:'Alte Haas Grotesk Bold'"
         id="path274" />
      <path
         d="m 75.435641,17.5167 q 0.0508,0.2794 0.0508,0.5588 0.0254,0.2794 -0.254,0.381 -0.1524,0.0762 -0.3556,0.0762 -0.2032,0 -0.4064,0 h -1.3716 q -0.2286,0 -0.4572,0 -0.2032,-0.0254 -0.3302,-0.127 -0.1778,-0.1016 -0.2794,-0.2794 -0.0762,-0.2032 -0.2286,-0.3302 -0.0508,-0.0508 -0.127,-0.0762 -0.0762,-0.0508 -0.2032,-0.0254 -0.127,0.0508 -0.254,0.127 -0.1016,0.0762 -0.2286,0.127 -0.127,0.1016 -0.2794,0.1778 -0.1524,0.0762 -0.3048,0.1524 -0.3302,0.1524 -0.6858,0.254 -0.3556,0.0762 -0.7366,0.1778 -0.1778,0.0508 -0.3556,0.0508 -0.1524,0.0254 -0.3302,0.0508 -0.0762,0 -0.1524,0 -0.0762,0.0254 -0.1524,0.0254 h -0.2794 q -0.254,0.0508 -0.508,0 h -0.2286 q -0.1778,-0.0508 -0.3556,-0.0508 -0.1524,0.0254 -0.3048,-0.0254 -0.254,-0.0508 -0.4826,-0.1016 -0.2286,-0.0254 -0.4318,-0.127 -0.7366,-0.2794 -1.27,-0.7112 -0.508,-0.4572 -0.8128,-1.1938 -0.0762,-0.1778 -0.1524,-0.381 -0.0508,-0.2032 -0.1016,-0.4318 -0.0508,-0.127 -0.0508,-0.254 0.0254,-0.127 0,-0.254 -0.0254,-0.0762 -0.0508,-0.3048 0,-0.254 0.0254,-0.3556 0.0508,-0.254 0.0508,-0.4318 0.0762,-0.2794 0.1524,-0.5588 0.0762,-0.3048 0.2032,-0.5334 0.4318,-0.7366 0.9906,-1.1176 0.5588,-0.381 1.4224,-0.6604 0.3302,-0.127 0.6858,-0.1778 0.3556,-0.0508 0.7112,-0.127 0.2032,-0.0508 0.4318,-0.0508 0.2286,-0.0254 0.4572,-0.0762 0.1778,-0.0508 0.3556,-0.0254 0.1778,0 0.381,-0.0508 0.1778,-0.0508 0.3556,-0.0508 0.1778,0 0.381,-0.0508 0.5334,-0.127 0.9652,-0.2032 0.4572,-0.1016 0.8128,-0.4572 0.2286,-0.2286003 0.3048,-0.5080003 0.0254,-0.0762 0,-0.127 0,-0.0508 0.0254,-0.1016 0.0254,-0.0508 0.0254,-0.1524 0,-0.1016 0,-0.1524 -0.0254,-0.1016 -0.0508,-0.2032 0,-0.1016 -0.0254,-0.1778 -0.254,-0.762 -1.0668,-1.0414 -0.2286,-0.0762 -0.5588,-0.1015999 -0.3048,-0.0508 -0.635,-0.0254 -0.3302,0 -0.635,0.0508 -0.3048,0.0508 -0.5334,0.1269999 -0.1524,0.0508 -0.3048,0.1524 -0.127,0.0762 -0.254,0.1778 -0.127,0.1016 -0.2794,0.2794 -0.127,0.1778 -0.1778,0.3302 -0.127,0.254 -0.2286,0.4826 -0.0762,0.2286 -0.3556,0.3048 -0.2032,0.0508 -0.4318,0.0508 -0.2286,0 -0.4572,0 h -0.9652 q -0.127,0 -0.254,0.0254 -0.127,0 -0.2286,-0.0254 h -0.2286 q -0.0508,-0.0254 -0.127,-0.0254 -0.0762,0 -0.127,-0.0508 -0.2032,-0.0508 -0.2794,-0.3302 -0.0254,-0.127 0,-0.254 0.0254,-0.127 0.0508,-0.2286 0.0762,-0.2794 0.1524,-0.508 0.1016,-0.254 0.2286,-0.4572 0.0762,-0.1269999 0.1524,-0.2539999 0.0762,-0.127 0.1524,-0.254 0.2032,-0.2794 0.508,-0.5334 0.0508,-0.0254 0.1524,-0.127 0.127,-0.1016 0.2286,-0.1778 0.1016,-0.0762 0.2286,-0.1524 0.4318,-0.2794 0.9144,-0.4318 0.4826,-0.1778 0.9906,-0.3302 0.3048,-0.0762 0.635,-0.1016 0.3302,-0.0254 0.6604,-0.1016 0.1016,-0.0254 0.3048,0 0.2286,0.0254 0.2794,-0.0254 1.0414,-0.0254 1.9812,0.0762 0.9652,0.1016 1.7272,0.381 0.7874,0.2794 1.3462,0.762 0.5588,0.4572 0.8636,1.1938 0.1778,0.4317999 0.2032,0.9905999 0.0254,0.5588 0.0254,1.143 V 15.3069 q 0,0.4826 0,0.9906 0,0.4826 0.1016,0.889 0.0254,0.0762 0.0254,0.1778 0,0.0762 0.0254,0.1524 z m -3.7338,-3.9116 q 0.0254,-0.127 0.0254,-0.2794 0,-0.1778 -0.0254,-0.3048 -0.0508,-0.1524 -0.0508,-0.2794 0,-0.127 -0.1016,-0.2032 -0.127,-0.1016 -0.381,-0.1016 -0.1016,0.0254 -0.1778,0.0508 -0.0762,0 -0.1778,0.0254 -0.1778,0.0508 -0.381,0.0762 -0.2032,0.0254 -0.4064,0.0762 -0.0762,0.0254 -0.2286,0.0254 -0.3302,0.0762 -0.6604,0.1016 -0.3302,0.0254 -0.635,0.127 -0.2032,0.0508 -0.381,0.1016 -0.1778,0.0254 -0.3556,0.1016 -0.5334,0.2286 -0.9144,0.6858 -0.3556,0.4572 -0.254,1.27 0.0508,0.4318 0.2794,0.7112 0.1778,0.2794 0.5334,0.4572 0.3556,0.1524 0.762,0.2286 0.4318,0.0762 0.889,0.0508 0.4826,-0.0508 0.889,-0.1778 0.6604,-0.2032 1.0414,-0.635 0.381,-0.4572 0.5842,-1.1176 0.0508,-0.1778 0.0508,-0.3556 0.0254,-0.2032 0.0762,-0.4064 z"
         style="font-family:'Alte Haas Grotesk';-inkscape-font-specification:'Alte Haas Grotesk Bold'"
         id="path276" />
      <path
         d="m 79.855231,1.5146998 h 1.7018 q 0.381,0 0.6604,0.0508 0.3048,0.0254 0.4318,0.3048 0.0508,0.127 0.0508,0.3048 0,0.1778 0,0.3556 v 1.143 q 0,0.127 -0.0254,0.3048 0,0.1524 0.0254,0.2794 v 0.2794 q 0,0.2032 0.0254,0.381 0.0254,0.1524 0.127,0.2794 0.1778,0.2286 0.635,0.254 0.4826,0 0.9144,0 0.1524,0 0.3048,0 0.1524,0 0.2794,0.0508 0.279399,0.127 0.304799,0.4572 0.0508,0.3302 0.0508,0.7366 0,0.1778 0,0.3556 0.0254,0.1778 -0.0254,0.3048 -0.127,0.4063999 -0.533399,0.4317999 -0.4064,0.0254 -0.9144,0.0254 -0.1016,0 -0.2286,0 -0.1016,-0.0254 -0.1778,0 -0.1016,0.0254 -0.1778,0.0254 -0.0762,-0.0254 -0.1524,0.0254 -0.2032,0.0508 -0.3048,0.2286 -0.0762,0.1524 -0.127,0.381 -0.0254,0.127 0,0.2794 0.0254,0.1524 0,0.2794 V 10.6079 13.5797 q 0,0.635 0.0254,1.1176 0.0508,0.4572 0.3302,0.8128 0.127,0.1524 0.3302,0.2286 0.2286,0.0508 0.4572,0.1016 0.0762,0.0254 0.1524,0.0254 0.1016,-0.0254 0.1524,0 h 0.2794 q 0.2794,0 0.4826,0.0254 0.2032,0.0254 0.330199,0.2032 0.1016,0.1524 0.1016,0.4064 0,0.2286 0,0.4826 0,0.5334 -0.0254,0.9906 0,0.4318 -0.406399,0.5842 -0.127,0.0508 -0.2286,0.0254 -0.1016,0 -0.2286,0.0508 h -0.254 q -0.0508,0 -0.1524,-0.0254 -0.1016,0 -0.1778,0.0254 -0.127,0.0254 -0.2794,0 -0.127,0 -0.254,0 -0.127,0 -0.254,0 -0.127,0.0254 -0.2286,0 h -0.2794 q -0.127,-0.0254 -0.2794,-0.0254 -0.1524,0 -0.2794,-0.0254 -0.1778,-0.0254 -0.3302,-0.0508 -0.1524,-0.0254 -0.3048,-0.0508 -0.2794,-0.0762 -0.5334,-0.1778 -0.254,-0.1016 -0.4826,-0.2286 -0.0762,-0.0508 -0.1524,-0.1016 -0.0762,-0.0762 -0.1778,-0.1524 -0.0508,-0.0508 -0.127,-0.1016 -0.0762,-0.0762 -0.127,-0.127 -0.3556,-0.4826 -0.5334,-1.0668 -0.0508,-0.1016 -0.0508,-0.1778 0.0254,-0.1016 0,-0.2286 -0.0254,-0.0508 -0.0254,-0.127 0,-0.0762 -0.0254,-0.127 v -0.254 q -0.0254,-0.1016 -0.0254,-0.2286 0.0254,-0.127 0.0254,-0.254 V 14.1639 10.3793 9.0330997 q 0,-0.1778 0,-0.3556 0.0254,-0.1778 -0.0254,-0.3302 -0.1016,-0.3556 -0.3556,-0.4572 -0.2794,-0.127 -0.7112,-0.0762 -0.4318,0.0508 -0.7366,-0.0762 -0.2032,-0.0762 -0.254,-0.2285999 -0.0508,-0.1524 -0.1016,-0.381 v -0.5334 q 0,-0.4572 0.0508,-0.7366 0.0508,-0.2794 0.4318,-0.381 0.1016,-0.0508 0.2032,-0.0254 0.1016,0 0.2286,0 0.381,0 0.7112,-0.0254 0.3302,-0.0508 0.4572,-0.3048 0.0762,-0.1778 0.0762,-0.4064 0.0254,-0.2286 0.0254,-0.4572 v -1.5748 q 0,-0.2032 0,-0.4318 0,-0.2286 0.0508,-0.381 0.127,-0.254 0.381,-0.3302 0.0508,-0.0254 0.127,0 0.1016,0 0.1524,-0.0254 z"
         style="font-family:'Alte Haas Grotesk';-inkscape-font-specification:'Alte Haas Grotesk Bold'"
         id="path278" />
      <path
         d="m 90.574011,0.60029985 q 0.1778,0.2032 0.1778,0.60959995 0,0.4064 0,0.7874 0,0.3302 0,0.6858 0,0.3556 -0.1778,0.4826 -0.1524,0.127 -0.4064,0.1524 -0.2286,0.0254 -0.508,0.0254 h -1.4224 q -0.2794,0 -0.508,-0.0254 -0.2032,-0.0254 -0.3556,-0.1524 -0.1016,-0.0762 -0.1524,-0.2794 -0.0254,-0.2286 -0.0508,-0.4826 0,-0.2794 0,-0.5588 0.0254,-0.2794 0.0254,-0.4826 0,-0.2032 0,-0.3556 0.0254,-0.17779995 0.1016,-0.30479995 0.0508,-0.1016 0.127,-0.15239999 0.1016,-0.0508 0.2032,-0.1016 0.0508,0 0.127,0 0.0762,-0.0254 0.127,-0.0254 h 1.8542 q 0.254,0 0.4826,0.0254 0.2286,0.0254 0.3556,0.15239999 z M 90.751811,17.1357 q 0,0.508 -0.0254,0.8636 -0.0254,0.3556 -0.4572,0.4826 -0.1524,0.0508 -0.3302,0.0508 -0.1778,-0.0254 -0.381,-0.0254 h -1.4224 q -0.2286,0 -0.4572,-0.0254 -0.2032,-0.0254 -0.3048,-0.1524 -0.1524,-0.1778 -0.1778,-0.4318 0,-0.2794 0,-0.5842 V 6.5946998 q 0,-0.254 0,-0.508 0,-0.254 0.1016,-0.4064 0.1524,-0.1778 0.4318,-0.2286 0.0508,-0.0254 0.127,0 0.1016,0 0.1524,-0.0254 h 1.27 q 0.1524,0 0.3302,0 0.2032,-0.0254 0.3302,0 h 0.2032 q 0.1524,0.0508 0.2794,0.0762 0.127,0.0254 0.2032,0.1524 0.1016,0.127 0.1016,0.3556 0.0254,0.2286 0.0254,0.4826 z"
         style="font-family:'Alte Haas Grotesk';-inkscape-font-specification:'Alte Haas Grotesk Bold'"
         id="path280" />
      <path
         d="m 106.7284,11.4461 q 0.0508,0.1524 0.0508,0.4318 0,0.2794 -0.0508,0.4318 v 0.254 q -0.0508,0.2032 -0.0508,0.4064 0.0254,0.2032 -0.0254,0.4064 -0.0508,0.1778 -0.0762,0.3302 -0.0254,0.1524 -0.0508,0.3302 -0.1016,0.2794 -0.1778,0.5842 -0.0762,0.2794 -0.2032,0.5334 -0.5334,1.2192 -1.397,1.9812 -0.8636,0.762 -2.0828,1.27 -0.3048,0.127 -0.635,0.1778 -0.3048,0.0762 -0.635,0.1524 -0.127,0.0508 -0.2794,0.0508 -0.1524,0 -0.2794,0.0254 -0.0762,0 -0.1778,0 -0.0762,0.0254 -0.1524,0.0254 -0.127,0.0254 -0.4064,0.0254 -0.279404,0.0254 -0.431804,-0.0254 h -0.254 q -0.127,-0.0254 -0.2794,-0.0254 -0.127,0.0254 -0.254,-0.0254 -0.1016,-0.0254 -0.2032,-0.0254 -0.0762,0 -0.2032,-0.0254 -0.254,-0.0762 -0.508,-0.127 -0.254,-0.0508 -0.4826,-0.1524 -0.3048,-0.1016 -0.5842,-0.2032 -0.254,-0.1016 -0.5334,-0.254 -0.889,-0.5334 -1.524,-1.2446 -0.635,-0.7112 -1.0668,-1.7018 -0.127,-0.2286 -0.2032,-0.4826 -0.0508,-0.254 -0.127,-0.5334 -0.0508,-0.127 -0.0508,-0.2286 0,-0.1016 -0.0508,-0.2286 -0.0508,-0.2032 -0.0508,-0.4064 0,-0.2286 -0.0508,-0.4318 -0.0254,-0.127 -0.0254,-0.2286 0,-0.1016 0,-0.2286 -0.0508,-0.1524 -0.0508,-0.4318 0.0254,-0.2794 0.0762,-0.4318 v -0.1778 q 0.0254,-0.127 0,-0.254 0,-0.1524 0.0508,-0.2794 0.0254,-0.127 0.0254,-0.2286 0,-0.127 0.0508,-0.254 0.1016,-0.3302003 0.1778,-0.6350003 0.0762,-0.3302 0.2032,-0.635 0.4572,-1.0414 1.0922,-1.7271999 0.635,-0.7112 1.5494,-1.2954 0.254,-0.127 0.5334,-0.2286 0.2794,-0.1016 0.5588,-0.2286 0.3302,-0.127 0.6858,-0.1778 0.3556,-0.0508 0.7366,-0.1524 0.2032,-0.0254 0.381,-0.0254 0.1778,0 0.3556,-0.0254 1.473204,-0.0254 2.540004,0.3048 1.0922,0.3302 1.9304,0.9144 0.2794,0.2032 0.5588,0.4572 0.3048,0.2286 0.508,0.508 0.2032,0.254 0.3556,0.5079999 0.1778,0.254 0.3556,0.5334 0.1778,0.2794 0.2794,0.6096 0.1016,0.3048 0.2286,0.6604 0.0762,0.2032 0.127,0.4318003 0.0508,0.2286 0.1016,0.4572 0.0254,0.1016 0.0254,0.2032 0,0.1016 0.0254,0.2032 0.0508,0.127 0.0254,0.2794 -0.0254,0.1524 0.0254,0.2794 z m -3.556,0.9144 q 0.0254,-0.127 0.0254,-0.3556 0,-0.254 -0.0254,-0.381 v -0.2032 q -0.0508,-0.127 -0.0508,-0.2794 0,-0.1524 -0.0254,-0.2794 0,-0.1016 -0.0254,-0.1524 -0.0508,-0.2032 -0.1016,-0.4064 -0.0254,-0.2286 -0.1016,-0.4318003 -0.2794,-0.6604 -0.6604,-1.1176 -0.381,-0.4826 -1.016,-0.762 -0.1524,-0.0508 -0.3048,-0.0762 -0.1524,-0.0508 -0.3302,-0.1016 -0.2032,-0.0508 -0.4318,-0.0254 -0.228604,0 -0.457204,0 -0.0762,0.0508 -0.1778,0.0508 -0.1016,-0.0254 -0.1778,0 -0.1778,0.0508 -0.3556,0.1016 -0.1524,0.0254 -0.2794,0.1016 -0.635,0.2794 -1.0414,0.8128 -0.381,0.508 -0.6096,1.1938003 -0.0762,0.254 -0.127,0.5334 -0.0254,0.2794 -0.0762,0.5588 -0.0254,0.127 -0.0254,0.254 0,0.127 0,0.254 -0.0508,0.1778 -0.0508,0.5334 0.0254,0.3556 0.0762,0.5334 v 0.2286 q 0.0508,0.2032 0.0762,0.4064 0.0254,0.1778 0.0762,0.381 0.254,0.762 0.5334,1.2446 0.3048,0.4572 0.9398,0.8382 0.1778,0.127 0.381,0.2032 0.2286,0.0762 0.4572,0.127 0.1016,0.0254 0.1778,0.0254 0.0762,-0.0254 0.1778,0 0.1016,0.0254 0.2032,0.0508 0.127,0 0.228604,-0.0254 h 0.2032 q 0.2032,-0.0508 0.4064,-0.0762 0.2032,-0.0254 0.381,-0.1016 0.6604,-0.254 1.0668,-0.6858 0.4064,-0.4318 0.6858,-1.0668 0.1016,-0.254 0.1524,-0.508 0.0508,-0.254 0.127,-0.5334 0.0254,-0.1016 0.0254,-0.1778 0,-0.1016 0.0254,-0.2032 0,-0.127 0,-0.2286 0,-0.127 0.0254,-0.254 z"
         style="font-family:'Alte Haas Grotesk';-inkscape-font-specification:'Alte Haas Grotesk Bold'"
         id="path282" />
      <path
         d="m 116.58354,5.0960998 q 1.524,-0.0508 2.54,0.4318 1.016,0.4826 1.6002,1.4224 0.1778,0.2794 0.2794,0.6095999 0.1016,0.3048 0.2032,0.635 0.0508,0.2032 0.0508,0.381 0.0254,0.1778 0.0762,0.3556 0,0.1524 0.0254,0.2032 0.0508,0.3556 0.0508,0.7366 0,0.3810003 0,0.7366003 v 2.2606 4.1148 q 0,0.4826 -0.0254,0.9398 0,0.4318 -0.3556,0.5588 -0.1524,0.0508 -0.3556,0.0508 -0.2032,0 -0.4064,0 h -1.3716 q -0.3048,0 -0.5588,-0.0254 -0.2286,-0.0508 -0.3556,-0.2286 -0.1016,-0.1524 -0.127,-0.381 0,-0.254 0,-0.5334 v -1.778 -3.7846 q 0,-0.9398 -0.0762,-1.7272 -0.0762,-0.8128003 -0.4572,-1.3716003 -0.3556,-0.508 -1.0414,-0.7112 -0.127,-0.0508 -0.2794,-0.0508 -0.127,0 -0.2794,-0.0508 -0.127,-0.0254 -0.3302,0 -0.1778,0 -0.2794,0.0254 -0.1016,0.0254 -0.1778,0.0254 -0.0762,0 -0.1524,0.0254 -0.5842,0.1524 -0.9398,0.4064 -0.8128,0.5842 -0.9652,1.7018003 -0.1524,1.1176 -0.1524,2.5146 v 3.175 1.5494 q 0,0.2286 0,0.4572 0,0.2286 -0.0762,0.381 -0.127,0.2794 -0.4064,0.3302 -0.2794,0.0508 -0.6858,0.0508 h -1.27 q -0.2794,0 -0.5588,-0.0254 -0.2794,-0.0254 -0.4064,-0.1778 -0.1778,-0.2286 -0.1778,-0.6604 0.0254,-0.4318 0.0254,-0.8128 V 13.4019 7.8138997 6.5184998 q 0,-0.2794 0,-0.508 0.0254,-0.2286 0.1524,-0.381 0.0508,-0.0762 0.1524,-0.1016 0.127,-0.0508 0.254,-0.0762 h 0.127 q 0.127,-0.0254 0.254,-0.0254 0.1524,0 0.2794,0 h 1.0668 q 0.2032,0 0.381,0.0254 0.2032,0 0.3556,0.0508 0.1778,0.0762 0.2286,0.2286 0.0762,0.1524 0.127,0.3556 0.0254,0.1016 0,0.1778 0,0.0762 0.0508,0.1524 0.0508,0.127 0.0762,0.1524 0.0508,0.0254 0.127,0.0762 0.2794,0.0254 0.4572,-0.1778 0.1778,-0.2286 0.381,-0.3556 0.6858,-0.508 1.524,-0.8128 0.2286,-0.0762 0.4572,-0.1016 0.254,-0.0254 0.5334,-0.0762 0.0762,-0.0254 0.2286,0 0.1524,0 0.2032,-0.0254 z"
         style="font-family:'Alte Haas Grotesk';-inkscape-font-specification:'Alte Haas Grotesk Bold'"
         id="path284" />
    </g>
  </g>
</svg>
